<?xml version="1.0" encoding="UTF-8"?>
<!--Generator: CustomSymbols by @serious_bret-->
<!DOCTYPE svg
PUBLIC "-//W3C//DTD SVG 1.1//EN"
       "http://www.w3.org/Graphics/SVG/1.1/DTD/svg11.dtd">
<svg version="1.1" xmlns="http://www.w3.org/2000/svg" xmlns:xlink="http://www.w3.org/1999/xlink" width="3300" height="2200">
 <g id="Notes">
  <rect height="2200" id="artboard" style="fill:white;opacity:1" width="3300" x="0" y="0"/>
  <line id="" style="fill:none;stroke:black;opacity:1;stroke-width:0.5;" x1="263" x2="3036" y1="292" y2="292"/>
  <text id="reftext1" style="stroke:none;fill:black;font-family:-apple-system,&quot;SF Pro Display&quot;,&quot;SF Pro Text&quot;,Helvetica,sans-serif;font-weight:bold;" transform="matrix(1 0 0 1 263 322)">Weight/Scale Variations</text>
  <text id="reftext2" style="stroke:none;fill:black;font-family:-apple-system,&quot;SF Pro Display&quot;,&quot;SF Pro Text&quot;,Helvetica,sans-serif;text-anchor:middle;" transform="matrix(1 0 0 1 559.711 322)">Ultralight</text>
  <text style="stroke:none;fill:black;font-family:-apple-system,&quot;SF Pro Display&quot;,&quot;SF Pro Text&quot;,Helvetica,sans-serif;text-anchor:middle;" transform="matrix(1 0 0 1 856.422 322)">Thin</text>
  <text style="stroke:none;fill:black;font-family:-apple-system,&quot;SF Pro Display&quot;,&quot;SF Pro Text&quot;,Helvetica,sans-serif;text-anchor:middle;" transform="matrix(1 0 0 1 1153.13 322)">Light</text>
  <text style="stroke:none;fill:black;font-family:-apple-system,&quot;SF Pro Display&quot;,&quot;SF Pro Text&quot;,Helvetica,sans-serif;text-anchor:middle;" transform="matrix(1 0 0 1 1449.84 322)">Regular</text>
  <text style="stroke:none;fill:black;font-family:-apple-system,&quot;SF Pro Display&quot;,&quot;SF Pro Text&quot;,Helvetica,sans-serif;text-anchor:middle;" transform="matrix(1 0 0 1 1746.56 322)">Medium</text>
  <text style="stroke:none;fill:black;font-family:-apple-system,&quot;SF Pro Display&quot;,&quot;SF Pro Text&quot;,Helvetica,sans-serif;text-anchor:middle;" transform="matrix(1 0 0 1 2043.27 322)">Semibold</text>
  <text style="stroke:none;fill:black;font-family:-apple-system,&quot;SF Pro Display&quot;,&quot;SF Pro Text&quot;,Helvetica,sans-serif;text-anchor:middle;" transform="matrix(1 0 0 1 2339.98 322)">Bold</text>
  <text style="stroke:none;fill:black;font-family:-apple-system,&quot;SF Pro Display&quot;,&quot;SF Pro Text&quot;,Helvetica,sans-serif;text-anchor:middle;" transform="matrix(1 0 0 1 2636.69 322)">Heavy</text>
  <text style="stroke:none;fill:black;font-family:-apple-system,&quot;SF Pro Display&quot;,&quot;SF Pro Text&quot;,Helvetica,sans-serif;text-anchor:middle;" transform="matrix(1 0 0 1 2933.4 322)">Black</text>
  <line id="" style="fill:none;stroke:black;opacity:1;stroke-width:0.5;" x1="263" x2="3036" y1="1903" y2="1903"/>
  <g id="" transform="matrix(1 0 0 1 263 1933)">
   <path d="M9.24805 0.830078C13.5547 0.830078 17.1387-2.74414 17.1387-7.05078C17.1387-11.3574 13.5449-14.9316 9.23828-14.9316C4.94141-14.9316 1.36719-11.3574 1.36719-7.05078C1.36719-2.74414 4.95117 0.830078 9.24805 0.830078ZM9.24805-0.654297C5.70312-0.654297 2.87109-3.49609 2.87109-7.05078C2.87109-10.6055 5.69336-13.4473 9.23828-13.4473C12.793-13.4473 15.6348-10.6055 15.6445-7.05078C15.6543-3.49609 12.8027-0.654297 9.24805-0.654297ZM6.39648-6.31836L8.50586-6.31836L8.50586-4.19922C8.50586-3.75977 8.79883-3.45703 9.22852-3.45703C9.67773-3.45703 9.9707-3.75977 9.9707-4.19922L9.9707-6.31836L12.0996-6.31836C12.5391-6.31836 12.8418-6.61133 12.8418-7.04102C12.8418-7.48047 12.5391-7.7832 12.0996-7.7832L9.9707-7.7832L9.9707-9.89258C9.9707-10.3418 9.67773-10.6445 9.22852-10.6445C8.79883-10.6445 8.50586-10.3418 8.50586-9.89258L8.50586-7.7832L6.39648-7.7832C5.94727-7.7832 5.64453-7.48047 5.64453-7.04102C5.64453-6.61133 5.94727-6.31836 6.39648-6.31836Z"/>
  </g>
  <g id="" transform="matrix(1 0 0 1 281.506 1933)">
   <path d="M11.709 2.91016C17.1582 2.91016 21.6699-1.61133 21.6699-7.05078C21.6699-12.5 17.1484-17.0117 11.6992-17.0117C6.25977-17.0117 1.74805-12.5 1.74805-7.05078C1.74805-1.61133 6.26953 2.91016 11.709 2.91016ZM11.709 1.25C7.09961 1.25 3.41797-2.44141 3.41797-7.05078C3.41797-11.6602 7.08984-15.3516 11.6992-15.3516C16.3086-15.3516 20-11.6602 20.0098-7.05078C20.0195-2.44141 16.3184 1.25 11.709 1.25ZM7.98828-6.23047L10.8789-6.23047L10.8789-3.32031C10.8789-2.83203 11.2109-2.5 11.6895-2.5C12.1777-2.5 12.5195-2.83203 12.5195-3.32031L12.5195-6.23047L15.4297-6.23047C15.918-6.23047 16.25-6.5625 16.25-7.04102C16.25-7.5293 15.918-7.87109 15.4297-7.87109L12.5195-7.87109L12.5195-10.7617C12.5195-11.2695 12.1777-11.6016 11.6895-11.6016C11.2109-11.6016 10.8789-11.2598 10.8789-10.7617L10.8789-7.87109L7.98828-7.87109C7.48047-7.87109 7.14844-7.5293 7.14844-7.04102C7.14844-6.5625 7.49023-6.23047 7.98828-6.23047Z"/>
  </g>
  <g id="" transform="matrix(1 0 0 1 304.924 1933)">
   <path d="M14.9707 5.66406C21.9336 5.66406 27.6953-0.0976562 27.6953-7.05078C27.6953-14.0137 21.9238-19.7754 14.9609-19.7754C8.00781-19.7754 2.25586-14.0137 2.25586-7.05078C2.25586-0.0976562 8.01758 5.66406 14.9707 5.66406ZM14.9707 3.84766C8.93555 3.84766 4.08203-1.01562 4.08203-7.05078C4.08203-13.0957 8.92578-17.9492 14.9609-17.9492C21.0059-17.9492 25.8594-13.0957 25.8691-7.05078C25.8789-1.01562 21.0156 3.84766 14.9707 3.84766ZM10.0586-6.14258L14.0625-6.14258L14.0625-2.12891C14.0625-1.5918 14.4336-1.2207 14.9512-1.2207C15.4883-1.2207 15.8594-1.5918 15.8594-2.12891L15.8594-6.14258L19.8828-6.14258C20.4102-6.14258 20.791-6.51367 20.791-7.03125C20.791-7.56836 20.4199-7.94922 19.8828-7.94922L15.8594-7.94922L15.8594-11.9531C15.8594-12.5098 15.4883-12.8809 14.9512-12.8809C14.4336-12.8809 14.0625-12.5 14.0625-11.9531L14.0625-7.94922L10.0586-7.94922C9.50195-7.94922 9.13086-7.56836 9.13086-7.03125C9.13086-6.51367 9.51172-6.14258 10.0586-6.14258Z"/>
  </g>
  <text style="stroke:none;fill:black;font-family:-apple-system,&quot;SF Pro Display&quot;,&quot;SF Pro Text&quot;,Helvetica,sans-serif;font-weight:bold;" transform="matrix(1 0 0 1 263 1953)">Design Variations</text>
  <text style="stroke:none;fill:black;font-family:-apple-system,&quot;SF Pro Display&quot;,&quot;SF Pro Text&quot;,Helvetica,sans-serif;" transform="matrix(1 0 0 1 263 1971)">Symbols are supported in up to nine weights and three scales.</text>
  <text style="stroke:none;fill:black;font-family:-apple-system,&quot;SF Pro Display&quot;,&quot;SF Pro Text&quot;,Helvetica,sans-serif;" transform="matrix(1 0 0 1 263 1989)">For optimal layout with text and other symbols, vertically align</text>
  <text style="stroke:none;fill:black;font-family:-apple-system,&quot;SF Pro Display&quot;,&quot;SF Pro Text&quot;,Helvetica,sans-serif;" transform="matrix(1 0 0 1 263 2007)">symbols with the adjacent text.</text>
  <line id="" style="fill:none;stroke:#00AEEF;stroke-width:0.5;opacity:1.0;" x1="776" x2="776" y1="1919" y2="1933"/>
  <g id="" transform="matrix(1 0 0 1 776 1933)">
   <path d="M3.31055 0.126953C3.82812 0.126953 4.08203-0.0683594 4.26758-0.605469L5.52734-4.0625L11.2891-4.0625L12.5488-0.605469C12.7344-0.0683594 12.9883 0.126953 13.4961 0.126953C14.0137 0.126953 14.3457-0.185547 14.3457-0.673828C14.3457-0.839844 14.3164-0.986328 14.2383-1.20117L9.6582-13.3887C9.43359-13.9941 9.0332-14.2871 8.4082-14.2871C7.80273-14.2871 7.39258-13.9941 7.17773-13.3984L2.59766-1.19141C2.51953-0.976562 2.49023-0.830078 2.49023-0.664062C2.49023-0.175781 2.80273 0.126953 3.31055 0.126953ZM6.00586-5.53711L8.37891-12.1094L8.42773-12.1094L10.8008-5.53711Z"/>
  </g>
  <line id="" style="fill:none;stroke:#00AEEF;stroke-width:0.5;opacity:1.0;" x1="792.836" x2="792.836" y1="1919" y2="1933"/>
  <text style="stroke:none;fill:black;font-family:-apple-system,&quot;SF Pro Display&quot;,&quot;SF Pro Text&quot;,Helvetica,sans-serif;font-weight:bold;" transform="matrix(1 0 0 1 776 1953)">Margins</text>
  <text style="stroke:none;fill:black;font-family:-apple-system,&quot;SF Pro Display&quot;,&quot;SF Pro Text&quot;,Helvetica,sans-serif;" transform="matrix(1 0 0 1 776 1971)">Leading and trailing margins on the left and right side of each symbol</text>
  <text style="stroke:none;fill:black;font-family:-apple-system,&quot;SF Pro Display&quot;,&quot;SF Pro Text&quot;,Helvetica,sans-serif;" transform="matrix(1 0 0 1 776 1989)">can be adjusted by modifying the x-location of the margin guidelines.</text>
  <text style="stroke:none;fill:black;font-family:-apple-system,&quot;SF Pro Display&quot;,&quot;SF Pro Text&quot;,Helvetica,sans-serif;" transform="matrix(1 0 0 1 776 2007)">Modifications are automatically applied proportionally to all</text>
  <text style="stroke:none;fill:black;font-family:-apple-system,&quot;SF Pro Display&quot;,&quot;SF Pro Text&quot;,Helvetica,sans-serif;" transform="matrix(1 0 0 1 776 2025)">scales and weights.</text>
  <g id="" transform="matrix(1 0 0 1 1289 1933)">
   <path d="M2.8418 1.86523L4.54102 3.57422C5.40039 4.44336 6.38672 4.38477 7.31445 3.35938L17.4902-7.85156C17.7539-7.76367 18.0273-7.7832 18.3398-7.8418L19.4043-8.03711L20.0684-7.36328L20.0293-6.80664C19.9902-6.30859 20.1172-5.92773 20.6055-5.44922L21.3672-4.70703C21.8457-4.22852 22.4609-4.19922 22.9297-4.66797L25.8398-7.58789C26.3086-8.05664 26.2891-8.65234 25.8105-9.13086L25.0391-9.89258C24.5605-10.3711 24.1895-10.5273 23.7109-10.4883L23.1348-10.4395L22.4902-11.0742L22.7344-12.1973C22.8613-12.7637 22.7051-13.2031 22.1191-13.7891L19.9219-15.9766C16.582-19.2969 12.1484-19.2188 9.25781-16.3281C8.83789-15.918 8.80859-15.3418 9.04297-14.9512C9.27734-14.5898 9.73633-14.3555 10.3809-14.5215C11.8457-14.8633 13.3691-14.9219 14.7949-13.9844L14.209-12.5293C14.0137-12.0508 13.9844-11.6504 14.1113-11.2891L3.04688-0.898438C2.06055 0.0195312 1.98242 0.996094 2.8418 1.86523ZM10.752-15.957C13.1836-17.7344 16.4746-17.4316 18.7012-15.2051L21.1328-12.793C21.3672-12.5586 21.4062-12.373 21.3379-12.0312L21.0156-10.5469L22.5195-9.0625L23.5059-9.12109C23.7598-9.13086 23.8379-9.11133 24.0332-8.91602L24.6094-8.33984L22.168-5.89844L21.5918-6.47461C21.3965-6.66992 21.3672-6.74805 21.377-7.01172L21.4453-7.98828L19.9512-9.47266L18.4277-9.21875C18.1055-9.15039 17.959-9.17969 17.7148-9.41406L15.7129-11.416C15.459-11.6504 15.4297-11.8164 15.5859-12.1875L16.4648-14.2773C14.9023-15.7324 12.8711-16.3574 10.8398-15.7617C10.6836-15.7227 10.625-15.8496 10.752-15.957ZM5.27344 2.30469L4.10156 1.14258C3.63281 0.683594 3.74023 0.341797 4.14062-0.0195312L14.9512-10.1953L16.416-8.71094L6.42578 2.27539C6.07422 2.67578 5.74219 2.77344 5.27344 2.30469Z"/>
  </g>
  <text style="stroke:none;fill:black;font-family:-apple-system,&quot;SF Pro Display&quot;,&quot;SF Pro Text&quot;,Helvetica,sans-serif;font-weight:bold;" transform="matrix(1 0 0 1 1289 1953)">Exporting</text>
  <text style="stroke:none;fill:black;font-family:-apple-system,&quot;SF Pro Display&quot;,&quot;SF Pro Text&quot;,Helvetica,sans-serif;" transform="matrix(1 0 0 1 1289 1971)">Symbols should be outlined when exporting to ensure the</text>
  <text style="stroke:none;fill:black;font-family:-apple-system,&quot;SF Pro Display&quot;,&quot;SF Pro Text&quot;,Helvetica,sans-serif;" transform="matrix(1 0 0 1 1289 1989)">design is preserved when submitting to Xcode.</text>
  <text id="template-version" style="stroke:none;fill:black;font-family:-apple-system,&quot;SF Pro Display&quot;,&quot;SF Pro Text&quot;,Helvetica,sans-serif;text-anchor:end;" transform="matrix(1 0 0 1 3036 1933)">Template v.2.0</text>
  <text style="stroke:none;fill:black;font-family:-apple-system,&quot;SF Pro Display&quot;,&quot;SF Pro Text&quot;,Helvetica,sans-serif;text-anchor:end;" transform="matrix(1 0 0 1 3036 1951)">Requires Xcode 12 or greater</text>
  <text style="stroke:none;fill:black;font-family:-apple-system,&quot;SF Pro Display&quot;,&quot;SF Pro Text&quot;,Helvetica,sans-serif;" transform="matrix(1 0 0 1 263 726)">Small</text>
  <text style="stroke:none;fill:black;font-family:-apple-system,&quot;SF Pro Display&quot;,&quot;SF Pro Text&quot;,Helvetica,sans-serif;" transform="matrix(1 0 0 1 263 1156)">Medium</text>
  <text style="stroke:none;fill:black;font-family:-apple-system,&quot;SF Pro Display&quot;,&quot;SF Pro Text&quot;,Helvetica,sans-serif;" transform="matrix(1 0 0 1 263 1586)">Large</text>
 </g>
 <g id="Guides">
  <g id="H-reference" style="fill:#27AAE1;stroke:none;" transform="matrix(1 0 0 1 339 696)">
   <path d="M0.976562 0L3.66211 0L12.9883-24.4629L45.752-24.4629L55.127 0L57.7637 0L30.6152-70.459L28.125-70.459ZM29.3457-67.1387L29.4434-67.1387L44.873-26.709L13.8672-26.709Z"/>
  </g>
  <line id="Baseline-S" style="fill:none;stroke:#27AAE1;opacity:1;stroke-width:0.5;" x1="263" x2="3036" y1="696" y2="696"/>
  <line id="Capline-S" style="fill:none;stroke:#27AAE1;opacity:1;stroke-width:0.5;" x1="263" x2="3036" y1="625.541" y2="625.541"/>
  <g id="H-reference" style="fill:#27AAE1;stroke:none;" transform="matrix(1 0 0 1 339 1126)">
   <path d="M0.976562 0L3.66211 0L12.9883-24.4629L45.752-24.4629L55.127 0L57.7637 0L30.6152-70.459L28.125-70.459ZM29.3457-67.1387L29.4434-67.1387L44.873-26.709L13.8672-26.709Z"/>
  </g>
  <line id="Baseline-M" style="fill:none;stroke:#27AAE1;opacity:1;stroke-width:0.5;" x1="263" x2="3036" y1="1126" y2="1126"/>
  <line id="Capline-M" style="fill:none;stroke:#27AAE1;opacity:1;stroke-width:0.5;" x1="263" x2="3036" y1="1055.54" y2="1055.54"/>
  <g id="H-reference" style="fill:#27AAE1;stroke:none;" transform="matrix(1 0 0 1 339 1556)">
   <path d="M0.976562 0L3.66211 0L12.9883-24.4629L45.752-24.4629L55.127 0L57.7637 0L30.6152-70.459L28.125-70.459ZM29.3457-67.1387L29.4434-67.1387L44.873-26.709L13.8672-26.709Z"/>
  </g>
  <line id="Baseline-L" style="fill:none;stroke:#27AAE1;opacity:1;stroke-width:0.5;" x1="263" x2="3036" y1="1556" y2="1556"/>
  <line id="Capline-L" style="fill:none;stroke:#27AAE1;opacity:1;stroke-width:0.5;" x1="263" x2="3036" y1="1485.54" y2="1485.54"/>
  <line id="left-margin" x1="1415.6915581083579" x2="1415.6915581083579" y1="1030.79" y2="1150.12" style="fill:none;stroke:#00AEEF;stroke-width:0.5;opacity:1.0;"/>
  <line id="right-margin" x1="1478.6469078217456" x2="1478.6469078217456" y1="1030.79" y2="1150.12" style="fill:none;stroke:#00AEEF;stroke-width:0.5;opacity:1.0;"/>
 </g>
 <g id="Symbols">
  <g id="Black-L" transform="matrix(1.0,0.0,0.0,1.0,2889.860794078217,1475.9508136094676)">  <path stroke-opacity="1" xml:space="preserve" xmlns:xlink="http://www.w3.org/1999/xlink" fill="#000000" stroke-linejoin="miter" clip-path="url(#clip0)" stroke-linecap="butt" stroke-dasharray="none" stroke-miterlimit="4" stroke="none" stroke-width="1px" fill-opacity="1" fill-rule="evenodd" d="M39.903,28.939C52.371,28.939,62.773,37.813,65.179,49.61L65.243,50.031L61.514,50.031C57.997,50.031,55.145,52.179,55.145,54.827C55.145,57.476,57.997,59.623,61.514,59.623L65.243,59.623L65.179,60.045C62.773,71.842,52.371,80.716,39.903,80.716C25.653,80.716,14.102,69.125,14.102,54.827C14.102,40.529,25.653,28.939,39.903,28.939ZM39.903,26.247C24.167,26.247,11.411,39.043,11.411,54.827C11.411,70.611,24.167,83.407,39.903,83.407C55.638,83.407,68.394,70.611,68.394,54.827C68.394,39.043,55.638,26.247,39.903,26.247ZM66.257,23.558C64.864,23.558,63.735,24.654,63.735,26.005C63.735,27.356,64.864,28.452,66.257,28.452C67.65,28.452,68.779,27.356,68.779,26.005C68.779,24.654,67.65,23.558,66.257,23.558ZM73.552,23.507C72.159,23.507,71.03,24.602,71.03,25.954C71.03,27.305,72.159,28.401,73.552,28.401C74.944,28.401,76.073,27.305,76.073,25.954C76.073,24.602,74.944,23.507,73.552,23.507ZM5.643,6.071L74.162,6.071L74.162,18.991L5.643,18.991ZM3.489,3.918L3.489,21.144L76.316,21.144L76.316,3.918ZM5.646,0.152L74.159,0.152C77.193,0.152,79.653,2.612,79.653,5.646L79.653,84.145C79.653,87.179,77.193,89.638,74.159,89.638L5.646,89.638C2.612,89.638,0.152,87.179,0.152,84.145L0.152,5.646C0.152,2.612,2.612,0.152,5.646,0.152ZM5.646,0.152"/>
</g>
  <g id="Heavy-L" transform="matrix(1.0,0.0,0.0,1.0,2593.150794078217,1475.9508136094676)">  <path stroke-linejoin="miter" stroke-linecap="butt" fill-rule="evenodd" stroke-opacity="1" stroke-dasharray="none" fill-opacity="1" fill="#000000" stroke="none" clip-path="url(#clip0)" stroke-width="1px" xml:space="preserve" stroke-miterlimit="4" xmlns:xlink="http://www.w3.org/1999/xlink" d="M39.903,28.939C52.371,28.939,62.773,37.813,65.179,49.61L65.243,50.031L61.514,50.031C57.997,50.031,55.145,52.179,55.145,54.827C55.145,57.476,57.997,59.623,61.514,59.623L65.243,59.623L65.179,60.045C62.773,71.842,52.371,80.716,39.903,80.716C25.653,80.716,14.102,69.125,14.102,54.827C14.102,40.529,25.653,28.939,39.903,28.939ZM39.903,26.247C24.167,26.247,11.411,39.043,11.411,54.827C11.411,70.611,24.167,83.407,39.903,83.407C55.638,83.407,68.394,70.611,68.394,54.827C68.394,39.043,55.638,26.247,39.903,26.247ZM66.257,23.558C64.864,23.558,63.735,24.654,63.735,26.005C63.735,27.356,64.864,28.452,66.257,28.452C67.65,28.452,68.779,27.356,68.779,26.005C68.779,24.654,67.65,23.558,66.257,23.558ZM73.552,23.507C72.159,23.507,71.03,24.602,71.03,25.954C71.03,27.305,72.159,28.401,73.552,28.401C74.944,28.401,76.073,27.305,76.073,25.954C76.073,24.602,74.944,23.507,73.552,23.507ZM5.643,6.071L74.162,6.071L74.162,18.991L5.643,18.991ZM3.489,3.918L3.489,21.144L76.316,21.144L76.316,3.918ZM5.646,0.152L74.159,0.152C77.193,0.152,79.653,2.612,79.653,5.646L79.653,84.145C79.653,87.179,77.193,89.638,74.159,89.638L5.646,89.638C2.612,89.638,0.152,87.179,0.152,84.145L0.152,5.646C0.152,2.612,2.612,0.152,5.646,0.152ZM5.646,0.152"/>
</g>
  <g id="Bold-L" transform="matrix(1.0,0.0,0.0,1.0,2296.440794078217,1475.9508136094676)">  <path stroke-dasharray="none" fill="#000000" xmlns:xlink="http://www.w3.org/1999/xlink" fill-rule="evenodd" fill-opacity="1" stroke-linejoin="miter" stroke="none" stroke-opacity="1" xml:space="preserve" stroke-linecap="butt" stroke-width="1px" clip-path="url(#clip0)" stroke-miterlimit="4" d="M39.903,28.939C52.371,28.939,62.773,37.813,65.179,49.61L65.243,50.031L61.514,50.031C57.997,50.031,55.145,52.179,55.145,54.827C55.145,57.476,57.997,59.623,61.514,59.623L65.243,59.623L65.179,60.045C62.773,71.842,52.371,80.716,39.903,80.716C25.653,80.716,14.102,69.125,14.102,54.827C14.102,40.529,25.653,28.939,39.903,28.939ZM39.903,26.247C24.167,26.247,11.411,39.043,11.411,54.827C11.411,70.611,24.167,83.407,39.903,83.407C55.638,83.407,68.394,70.611,68.394,54.827C68.394,39.043,55.638,26.247,39.903,26.247ZM66.257,23.558C64.864,23.558,63.735,24.654,63.735,26.005C63.735,27.356,64.864,28.452,66.257,28.452C67.65,28.452,68.779,27.356,68.779,26.005C68.779,24.654,67.65,23.558,66.257,23.558ZM73.552,23.507C72.159,23.507,71.03,24.602,71.03,25.954C71.03,27.305,72.159,28.401,73.552,28.401C74.944,28.401,76.073,27.305,76.073,25.954C76.073,24.602,74.944,23.507,73.552,23.507ZM5.643,6.071L74.162,6.071L74.162,18.991L5.643,18.991ZM3.489,3.918L3.489,21.144L76.316,21.144L76.316,3.918ZM5.646,0.152L74.159,0.152C77.193,0.152,79.653,2.612,79.653,5.646L79.653,84.145C79.653,87.179,77.193,89.638,74.159,89.638L5.646,89.638C2.612,89.638,0.152,87.179,0.152,84.145L0.152,5.646C0.152,2.612,2.612,0.152,5.646,0.152ZM5.646,0.152"/>
</g>
  <g id="Semibold-L" transform="matrix(1.0,0.0,0.0,1.0,1999.7307940782175,1475.9508136094676)">  <path fill="#000000" clip-path="url(#clip0)" stroke-linejoin="miter" stroke-opacity="1" stroke="none" stroke-dasharray="none" xml:space="preserve" fill-opacity="1" stroke-miterlimit="4" xmlns:xlink="http://www.w3.org/1999/xlink" stroke-linecap="butt" fill-rule="evenodd" stroke-width="1px" d="M39.903,28.939C52.371,28.939,62.773,37.813,65.179,49.61L65.243,50.031L61.514,50.031C57.997,50.031,55.145,52.179,55.145,54.827C55.145,57.476,57.997,59.623,61.514,59.623L65.243,59.623L65.179,60.045C62.773,71.842,52.371,80.716,39.903,80.716C25.653,80.716,14.102,69.125,14.102,54.827C14.102,40.529,25.653,28.939,39.903,28.939ZM39.903,26.247C24.167,26.247,11.411,39.043,11.411,54.827C11.411,70.611,24.167,83.407,39.903,83.407C55.638,83.407,68.394,70.611,68.394,54.827C68.394,39.043,55.638,26.247,39.903,26.247ZM66.257,23.558C64.864,23.558,63.735,24.654,63.735,26.005C63.735,27.356,64.864,28.452,66.257,28.452C67.65,28.452,68.779,27.356,68.779,26.005C68.779,24.654,67.65,23.558,66.257,23.558ZM73.552,23.507C72.159,23.507,71.03,24.602,71.03,25.954C71.03,27.305,72.159,28.401,73.552,28.401C74.944,28.401,76.073,27.305,76.073,25.954C76.073,24.602,74.944,23.507,73.552,23.507ZM5.643,6.071L74.162,6.071L74.162,18.991L5.643,18.991ZM3.489,3.918L3.489,21.144L76.316,21.144L76.316,3.918ZM5.646,0.152L74.159,0.152C77.193,0.152,79.653,2.612,79.653,5.646L79.653,84.145C79.653,87.179,77.193,89.638,74.159,89.638L5.646,89.638C2.612,89.638,0.152,87.179,0.152,84.145L0.152,5.646C0.152,2.612,2.612,0.152,5.646,0.152ZM5.646,0.152"/>
</g>
  <g id="Medium-L" transform="matrix(1.0,0.0,0.0,1.0,1703.0207940782175,1475.9508136094676)">  <path fill-opacity="1" stroke-dasharray="none" clip-path="url(#clip0)" stroke-width="1px" fill="#000000" stroke-linejoin="miter" stroke-opacity="1" fill-rule="evenodd" stroke-miterlimit="4" xmlns:xlink="http://www.w3.org/1999/xlink" stroke="none" stroke-linecap="butt" xml:space="preserve" d="M39.903,28.939C52.371,28.939,62.773,37.813,65.179,49.61L65.243,50.031L61.514,50.031C57.997,50.031,55.145,52.179,55.145,54.827C55.145,57.476,57.997,59.623,61.514,59.623L65.243,59.623L65.179,60.045C62.773,71.842,52.371,80.716,39.903,80.716C25.653,80.716,14.102,69.125,14.102,54.827C14.102,40.529,25.653,28.939,39.903,28.939ZM39.903,26.247C24.167,26.247,11.411,39.043,11.411,54.827C11.411,70.611,24.167,83.407,39.903,83.407C55.638,83.407,68.394,70.611,68.394,54.827C68.394,39.043,55.638,26.247,39.903,26.247ZM66.257,23.558C64.864,23.558,63.735,24.654,63.735,26.005C63.735,27.356,64.864,28.452,66.257,28.452C67.65,28.452,68.779,27.356,68.779,26.005C68.779,24.654,67.65,23.558,66.257,23.558ZM73.552,23.507C72.159,23.507,71.03,24.602,71.03,25.954C71.03,27.305,72.159,28.401,73.552,28.401C74.944,28.401,76.073,27.305,76.073,25.954C76.073,24.602,74.944,23.507,73.552,23.507ZM5.643,6.071L74.162,6.071L74.162,18.991L5.643,18.991ZM3.489,3.918L3.489,21.144L76.316,21.144L76.316,3.918ZM5.646,0.152L74.159,0.152C77.193,0.152,79.653,2.612,79.653,5.646L79.653,84.145C79.653,87.179,77.193,89.638,74.159,89.638L5.646,89.638C2.612,89.638,0.152,87.179,0.152,84.145L0.152,5.646C0.152,2.612,2.612,0.152,5.646,0.152ZM5.646,0.152"/>
</g>
  <g id="Regular-L" transform="matrix(1.0,0.0,0.0,1.0,1406.3107940782174,1475.9508136094676)">  <path fill="#000000" fill-opacity="1" stroke-dasharray="none" clip-path="url(#clip0)" stroke-linejoin="miter" xml:space="preserve" stroke-opacity="1" xmlns:xlink="http://www.w3.org/1999/xlink" stroke-width="1px" stroke-miterlimit="4" stroke-linecap="butt" stroke="none" fill-rule="evenodd" d="M39.903,28.939C52.371,28.939,62.773,37.813,65.179,49.61L65.243,50.031L61.514,50.031C57.997,50.031,55.145,52.179,55.145,54.827C55.145,57.476,57.997,59.623,61.514,59.623L65.243,59.623L65.179,60.045C62.773,71.842,52.371,80.716,39.903,80.716C25.653,80.716,14.102,69.125,14.102,54.827C14.102,40.529,25.653,28.939,39.903,28.939ZM39.903,26.247C24.167,26.247,11.411,39.043,11.411,54.827C11.411,70.611,24.167,83.407,39.903,83.407C55.638,83.407,68.394,70.611,68.394,54.827C68.394,39.043,55.638,26.247,39.903,26.247ZM66.257,23.558C64.864,23.558,63.735,24.654,63.735,26.005C63.735,27.356,64.864,28.452,66.257,28.452C67.65,28.452,68.779,27.356,68.779,26.005C68.779,24.654,67.65,23.558,66.257,23.558ZM73.552,23.507C72.159,23.507,71.03,24.602,71.03,25.954C71.03,27.305,72.159,28.401,73.552,28.401C74.944,28.401,76.073,27.305,76.073,25.954C76.073,24.602,74.944,23.507,73.552,23.507ZM5.643,6.071L74.162,6.071L74.162,18.991L5.643,18.991ZM3.489,3.918L3.489,21.144L76.316,21.144L76.316,3.918ZM5.646,0.152L74.159,0.152C77.193,0.152,79.653,2.612,79.653,5.646L79.653,84.145C79.653,87.179,77.193,89.638,74.159,89.638L5.646,89.638C2.612,89.638,0.152,87.179,0.152,84.145L0.152,5.646C0.152,2.612,2.612,0.152,5.646,0.152ZM5.646,0.152"/>
</g>
  <g id="Light-L" transform="matrix(1.0,0.0,0.0,1.0,1109.6007940782176,1475.9508136094676)">  <path stroke-opacity="1" clip-path="url(#clip0)" stroke-width="1px" xml:space="preserve" fill-rule="evenodd" stroke="none" fill-opacity="1" stroke-miterlimit="4" fill="#000000" stroke-linecap="butt" stroke-dasharray="none" xmlns:xlink="http://www.w3.org/1999/xlink" stroke-linejoin="miter" d="M39.903,28.939C52.371,28.939,62.773,37.813,65.179,49.61L65.243,50.031L61.514,50.031C57.997,50.031,55.145,52.179,55.145,54.827C55.145,57.476,57.997,59.623,61.514,59.623L65.243,59.623L65.179,60.045C62.773,71.842,52.371,80.716,39.903,80.716C25.653,80.716,14.102,69.125,14.102,54.827C14.102,40.529,25.653,28.939,39.903,28.939ZM39.903,26.247C24.167,26.247,11.411,39.043,11.411,54.827C11.411,70.611,24.167,83.407,39.903,83.407C55.638,83.407,68.394,70.611,68.394,54.827C68.394,39.043,55.638,26.247,39.903,26.247ZM66.257,23.558C64.864,23.558,63.735,24.654,63.735,26.005C63.735,27.356,64.864,28.452,66.257,28.452C67.65,28.452,68.779,27.356,68.779,26.005C68.779,24.654,67.65,23.558,66.257,23.558ZM73.552,23.507C72.159,23.507,71.03,24.602,71.03,25.954C71.03,27.305,72.159,28.401,73.552,28.401C74.944,28.401,76.073,27.305,76.073,25.954C76.073,24.602,74.944,23.507,73.552,23.507ZM5.643,6.071L74.162,6.071L74.162,18.991L5.643,18.991ZM3.489,3.918L3.489,21.144L76.316,21.144L76.316,3.918ZM5.646,0.152L74.159,0.152C77.193,0.152,79.653,2.612,79.653,5.646L79.653,84.145C79.653,87.179,77.193,89.638,74.159,89.638L5.646,89.638C2.612,89.638,0.152,87.179,0.152,84.145L0.152,5.646C0.152,2.612,2.612,0.152,5.646,0.152ZM5.646,0.152"/>
</g>
  <g id="Thin-L" transform="matrix(1.0,0.0,0.0,1.0,812.8907940782175,1475.9508136094676)">  <path stroke="none" fill-rule="evenodd" stroke-opacity="1" xmlns:xlink="http://www.w3.org/1999/xlink" fill="#000000" clip-path="url(#clip0)" stroke-dasharray="none" fill-opacity="1" xml:space="preserve" stroke-width="1px" stroke-miterlimit="4" stroke-linejoin="miter" stroke-linecap="butt" d="M39.903,28.939C52.371,28.939,62.773,37.813,65.179,49.61L65.243,50.031L61.514,50.031C57.997,50.031,55.145,52.179,55.145,54.827C55.145,57.476,57.997,59.623,61.514,59.623L65.243,59.623L65.179,60.045C62.773,71.842,52.371,80.716,39.903,80.716C25.653,80.716,14.102,69.125,14.102,54.827C14.102,40.529,25.653,28.939,39.903,28.939ZM39.903,26.247C24.167,26.247,11.411,39.043,11.411,54.827C11.411,70.611,24.167,83.407,39.903,83.407C55.638,83.407,68.394,70.611,68.394,54.827C68.394,39.043,55.638,26.247,39.903,26.247ZM66.257,23.558C64.864,23.558,63.735,24.654,63.735,26.005C63.735,27.356,64.864,28.452,66.257,28.452C67.65,28.452,68.779,27.356,68.779,26.005C68.779,24.654,67.65,23.558,66.257,23.558ZM73.552,23.507C72.159,23.507,71.03,24.602,71.03,25.954C71.03,27.305,72.159,28.401,73.552,28.401C74.944,28.401,76.073,27.305,76.073,25.954C76.073,24.602,74.944,23.507,73.552,23.507ZM5.643,6.071L74.162,6.071L74.162,18.991L5.643,18.991ZM3.489,3.918L3.489,21.144L76.316,21.144L76.316,3.918ZM5.646,0.152L74.159,0.152C77.193,0.152,79.653,2.612,79.653,5.646L79.653,84.145C79.653,87.179,77.193,89.638,74.159,89.638L5.646,89.638C2.612,89.638,0.152,87.179,0.152,84.145L0.152,5.646C0.152,2.612,2.612,0.152,5.646,0.152ZM5.646,0.152"/>
</g>
  <g id="Ultralight-L" transform="matrix(1.0,0.0,0.0,1.0,516.1807940782174,1475.9508136094676)">  <path stroke-linecap="butt" stroke-opacity="1" fill-rule="evenodd" stroke-dasharray="none" xmlns:xlink="http://www.w3.org/1999/xlink" stroke="none" stroke-width="1px" fill-opacity="1" fill="#000000" stroke-linejoin="miter" stroke-miterlimit="4" clip-path="url(#clip0)" xml:space="preserve" d="M39.903,28.939C52.371,28.939,62.773,37.813,65.179,49.61L65.243,50.031L61.514,50.031C57.997,50.031,55.145,52.179,55.145,54.827C55.145,57.476,57.997,59.623,61.514,59.623L65.243,59.623L65.179,60.045C62.773,71.842,52.371,80.716,39.903,80.716C25.653,80.716,14.102,69.125,14.102,54.827C14.102,40.529,25.653,28.939,39.903,28.939ZM39.903,26.247C24.167,26.247,11.411,39.043,11.411,54.827C11.411,70.611,24.167,83.407,39.903,83.407C55.638,83.407,68.394,70.611,68.394,54.827C68.394,39.043,55.638,26.247,39.903,26.247ZM66.257,23.558C64.864,23.558,63.735,24.654,63.735,26.005C63.735,27.356,64.864,28.452,66.257,28.452C67.65,28.452,68.779,27.356,68.779,26.005C68.779,24.654,67.65,23.558,66.257,23.558ZM73.552,23.507C72.159,23.507,71.03,24.602,71.03,25.954C71.03,27.305,72.159,28.401,73.552,28.401C74.944,28.401,76.073,27.305,76.073,25.954C76.073,24.602,74.944,23.507,73.552,23.507ZM5.643,6.071L74.162,6.071L74.162,18.991L5.643,18.991ZM3.489,3.918L3.489,21.144L76.316,21.144L76.316,3.918ZM5.646,0.152L74.159,0.152C77.193,0.152,79.653,2.612,79.653,5.646L79.653,84.145C79.653,87.179,77.193,89.638,74.159,89.638L5.646,89.638C2.612,89.638,0.152,87.179,0.152,84.145L0.152,5.646C0.152,2.612,2.612,0.152,5.646,0.152ZM5.646,0.152"/>
</g>
  <g id="Black-M" transform="matrix(1.0,0.0,0.0,1.0,2899.936429517998,1056.026449049248)">  <path stroke-opacity="1" xml:space="preserve" xmlns:xlink="http://www.w3.org/1999/xlink" fill="#000000" stroke-linejoin="miter" clip-path="url(#clip0)" stroke-linecap="butt" stroke-dasharray="none" stroke-miterlimit="4" stroke="none" stroke-width="1px" fill-opacity="1" fill-rule="evenodd" d="M30.932,22.433C40.597,22.433,48.661,29.312,50.526,38.457L50.576,38.784L47.685,38.784C44.959,38.784,42.748,40.449,42.748,42.502C42.748,44.555,44.959,46.219,47.685,46.219L50.576,46.219L50.526,46.546C48.661,55.691,40.597,62.571,30.932,62.571C19.886,62.571,10.932,53.585,10.932,42.502C10.932,31.418,19.886,22.433,30.932,22.433ZM30.932,20.347C18.734,20.347,8.846,30.266,8.846,42.502C8.846,54.737,18.734,64.657,30.932,64.657C43.13,64.657,53.019,54.737,53.019,42.502C53.019,30.266,43.13,20.347,30.932,20.347ZM51.362,18.262C50.282,18.262,49.407,19.111,49.407,20.159C49.407,21.207,50.282,22.056,51.362,22.056C52.442,22.056,53.317,21.207,53.317,20.159C53.317,19.111,52.442,18.262,51.362,18.262ZM57.017,18.222C55.937,18.222,55.062,19.072,55.062,20.119C55.062,21.167,55.937,22.016,57.017,22.016C58.096,22.016,58.972,21.167,58.972,20.119C58.972,19.072,58.096,18.222,57.017,18.222ZM4.374,4.706L57.49,4.706L57.49,14.721L4.374,14.721ZM2.705,3.037L2.705,16.391L59.159,16.391L59.159,3.037ZM4.377,0.118L57.487,0.118C59.84,0.118,61.747,2.024,61.747,4.377L61.747,65.228C61.747,67.58,59.84,69.487,57.487,69.487L4.377,69.487C2.025,69.487,0.118,67.58,0.118,65.228L0.118,4.377C0.118,2.024,2.025,0.118,4.377,0.118ZM4.377,0.118"/>
</g>
  <g id="Heavy-M" transform="matrix(1.0,0.0,0.0,1.0,2603.226429517998,1056.026449049248)">  <path stroke-linejoin="miter" stroke-linecap="butt" fill-rule="evenodd" stroke-opacity="1" stroke-dasharray="none" fill-opacity="1" fill="#000000" stroke="none" clip-path="url(#clip0)" stroke-width="1px" xml:space="preserve" stroke-miterlimit="4" xmlns:xlink="http://www.w3.org/1999/xlink" d="M30.932,22.433C40.597,22.433,48.661,29.312,50.526,38.457L50.576,38.784L47.685,38.784C44.959,38.784,42.748,40.449,42.748,42.502C42.748,44.555,44.959,46.219,47.685,46.219L50.576,46.219L50.526,46.546C48.661,55.691,40.597,62.571,30.932,62.571C19.886,62.571,10.932,53.585,10.932,42.502C10.932,31.418,19.886,22.433,30.932,22.433ZM30.932,20.347C18.734,20.347,8.846,30.266,8.846,42.502C8.846,54.737,18.734,64.657,30.932,64.657C43.13,64.657,53.019,54.737,53.019,42.502C53.019,30.266,43.13,20.347,30.932,20.347ZM51.362,18.262C50.282,18.262,49.407,19.111,49.407,20.159C49.407,21.207,50.282,22.056,51.362,22.056C52.442,22.056,53.317,21.207,53.317,20.159C53.317,19.111,52.442,18.262,51.362,18.262ZM57.017,18.222C55.937,18.222,55.062,19.072,55.062,20.119C55.062,21.167,55.937,22.016,57.017,22.016C58.096,22.016,58.972,21.167,58.972,20.119C58.972,19.072,58.096,18.222,57.017,18.222ZM4.374,4.706L57.49,4.706L57.49,14.721L4.374,14.721ZM2.705,3.037L2.705,16.391L59.159,16.391L59.159,3.037ZM4.377,0.118L57.487,0.118C59.84,0.118,61.747,2.024,61.747,4.377L61.747,65.228C61.747,67.58,59.84,69.487,57.487,69.487L4.377,69.487C2.025,69.487,0.118,67.58,0.118,65.228L0.118,4.377C0.118,2.024,2.025,0.118,4.377,0.118ZM4.377,0.118"/>
</g>
  <g id="Bold-M" transform="matrix(1.0,0.0,0.0,1.0,2306.516429517998,1056.026449049248)">  <path stroke-dasharray="none" fill="#000000" xmlns:xlink="http://www.w3.org/1999/xlink" fill-rule="evenodd" fill-opacity="1" stroke-linejoin="miter" stroke="none" stroke-opacity="1" xml:space="preserve" stroke-linecap="butt" stroke-width="1px" clip-path="url(#clip0)" stroke-miterlimit="4" d="M30.932,22.433C40.597,22.433,48.661,29.312,50.526,38.457L50.576,38.784L47.685,38.784C44.959,38.784,42.748,40.449,42.748,42.502C42.748,44.555,44.959,46.219,47.685,46.219L50.576,46.219L50.526,46.546C48.661,55.691,40.597,62.571,30.932,62.571C19.886,62.571,10.932,53.585,10.932,42.502C10.932,31.418,19.886,22.433,30.932,22.433ZM30.932,20.347C18.734,20.347,8.846,30.266,8.846,42.502C8.846,54.737,18.734,64.657,30.932,64.657C43.13,64.657,53.019,54.737,53.019,42.502C53.019,30.266,43.13,20.347,30.932,20.347ZM51.362,18.262C50.282,18.262,49.407,19.111,49.407,20.159C49.407,21.207,50.282,22.056,51.362,22.056C52.442,22.056,53.317,21.207,53.317,20.159C53.317,19.111,52.442,18.262,51.362,18.262ZM57.017,18.222C55.937,18.222,55.062,19.072,55.062,20.119C55.062,21.167,55.937,22.016,57.017,22.016C58.096,22.016,58.972,21.167,58.972,20.119C58.972,19.072,58.096,18.222,57.017,18.222ZM4.374,4.706L57.49,4.706L57.49,14.721L4.374,14.721ZM2.705,3.037L2.705,16.391L59.159,16.391L59.159,3.037ZM4.377,0.118L57.487,0.118C59.84,0.118,61.747,2.024,61.747,4.377L61.747,65.228C61.747,67.58,59.84,69.487,57.487,69.487L4.377,69.487C2.025,69.487,0.118,67.58,0.118,65.228L0.118,4.377C0.118,2.024,2.025,0.118,4.377,0.118ZM4.377,0.118"/>
</g>
  <g id="Semibold-M" transform="matrix(1.0,0.0,0.0,1.0,2009.806429517998,1056.026449049248)">  <path fill="#000000" clip-path="url(#clip0)" stroke-linejoin="miter" stroke-opacity="1" stroke="none" stroke-dasharray="none" xml:space="preserve" fill-opacity="1" stroke-miterlimit="4" xmlns:xlink="http://www.w3.org/1999/xlink" stroke-linecap="butt" fill-rule="evenodd" stroke-width="1px" d="M30.932,22.433C40.597,22.433,48.661,29.312,50.526,38.457L50.576,38.784L47.685,38.784C44.959,38.784,42.748,40.449,42.748,42.502C42.748,44.555,44.959,46.219,47.685,46.219L50.576,46.219L50.526,46.546C48.661,55.691,40.597,62.571,30.932,62.571C19.886,62.571,10.932,53.585,10.932,42.502C10.932,31.418,19.886,22.433,30.932,22.433ZM30.932,20.347C18.734,20.347,8.846,30.266,8.846,42.502C8.846,54.737,18.734,64.657,30.932,64.657C43.13,64.657,53.019,54.737,53.019,42.502C53.019,30.266,43.13,20.347,30.932,20.347ZM51.362,18.262C50.282,18.262,49.407,19.111,49.407,20.159C49.407,21.207,50.282,22.056,51.362,22.056C52.442,22.056,53.317,21.207,53.317,20.159C53.317,19.111,52.442,18.262,51.362,18.262ZM57.017,18.222C55.937,18.222,55.062,19.072,55.062,20.119C55.062,21.167,55.937,22.016,57.017,22.016C58.096,22.016,58.972,21.167,58.972,20.119C58.972,19.072,58.096,18.222,57.017,18.222ZM4.374,4.706L57.49,4.706L57.49,14.721L4.374,14.721ZM2.705,3.037L2.705,16.391L59.159,16.391L59.159,3.037ZM4.377,0.118L57.487,0.118C59.84,0.118,61.747,2.024,61.747,4.377L61.747,65.228C61.747,67.58,59.84,69.487,57.487,69.487L4.377,69.487C2.025,69.487,0.118,67.58,0.118,65.228L0.118,4.377C0.118,2.024,2.025,0.118,4.377,0.118ZM4.377,0.118"/>
</g>
  <g id="Medium-M" transform="matrix(1.0,0.0,0.0,1.0,1713.0964295179979,1056.026449049248)">  <path fill-opacity="1" stroke-dasharray="none" clip-path="url(#clip0)" stroke-width="1px" fill="#000000" stroke-linejoin="miter" stroke-opacity="1" fill-rule="evenodd" stroke-miterlimit="4" xmlns:xlink="http://www.w3.org/1999/xlink" stroke="none" stroke-linecap="butt" xml:space="preserve" d="M30.932,22.433C40.597,22.433,48.661,29.312,50.526,38.457L50.576,38.784L47.685,38.784C44.959,38.784,42.748,40.449,42.748,42.502C42.748,44.555,44.959,46.219,47.685,46.219L50.576,46.219L50.526,46.546C48.661,55.691,40.597,62.571,30.932,62.571C19.886,62.571,10.932,53.585,10.932,42.502C10.932,31.418,19.886,22.433,30.932,22.433ZM30.932,20.347C18.734,20.347,8.846,30.266,8.846,42.502C8.846,54.737,18.734,64.657,30.932,64.657C43.13,64.657,53.019,54.737,53.019,42.502C53.019,30.266,43.13,20.347,30.932,20.347ZM51.362,18.262C50.282,18.262,49.407,19.111,49.407,20.159C49.407,21.207,50.282,22.056,51.362,22.056C52.442,22.056,53.317,21.207,53.317,20.159C53.317,19.111,52.442,18.262,51.362,18.262ZM57.017,18.222C55.937,18.222,55.062,19.072,55.062,20.119C55.062,21.167,55.937,22.016,57.017,22.016C58.096,22.016,58.972,21.167,58.972,20.119C58.972,19.072,58.096,18.222,57.017,18.222ZM4.374,4.706L57.49,4.706L57.49,14.721L4.374,14.721ZM2.705,3.037L2.705,16.391L59.159,16.391L59.159,3.037ZM4.377,0.118L57.487,0.118C59.84,0.118,61.747,2.024,61.747,4.377L61.747,65.228C61.747,67.58,59.84,69.487,57.487,69.487L4.377,69.487C2.025,69.487,0.118,67.58,0.118,65.228L0.118,4.377C0.118,2.024,2.025,0.118,4.377,0.118ZM4.377,0.118"/>
</g>
  <g id="Regular-M" transform="matrix(1.0,0.0,0.0,1.0,1416.3864295179978,1056.026449049248)">  <path fill="#000000" fill-opacity="1" stroke-dasharray="none" clip-path="url(#clip0)" stroke-linejoin="miter" xml:space="preserve" stroke-opacity="1" xmlns:xlink="http://www.w3.org/1999/xlink" stroke-width="1px" stroke-miterlimit="4" stroke-linecap="butt" stroke="none" fill-rule="evenodd" d="M30.932,22.433C40.597,22.433,48.661,29.312,50.526,38.457L50.576,38.784L47.685,38.784C44.959,38.784,42.748,40.449,42.748,42.502C42.748,44.555,44.959,46.219,47.685,46.219L50.576,46.219L50.526,46.546C48.661,55.691,40.597,62.571,30.932,62.571C19.886,62.571,10.932,53.585,10.932,42.502C10.932,31.418,19.886,22.433,30.932,22.433ZM30.932,20.347C18.734,20.347,8.846,30.266,8.846,42.502C8.846,54.737,18.734,64.657,30.932,64.657C43.13,64.657,53.019,54.737,53.019,42.502C53.019,30.266,43.13,20.347,30.932,20.347ZM51.362,18.262C50.282,18.262,49.407,19.111,49.407,20.159C49.407,21.207,50.282,22.056,51.362,22.056C52.442,22.056,53.317,21.207,53.317,20.159C53.317,19.111,52.442,18.262,51.362,18.262ZM57.017,18.222C55.937,18.222,55.062,19.072,55.062,20.119C55.062,21.167,55.937,22.016,57.017,22.016C58.096,22.016,58.972,21.167,58.972,20.119C58.972,19.072,58.096,18.222,57.017,18.222ZM4.374,4.706L57.49,4.706L57.49,14.721L4.374,14.721ZM2.705,3.037L2.705,16.391L59.159,16.391L59.159,3.037ZM4.377,0.118L57.487,0.118C59.84,0.118,61.747,2.024,61.747,4.377L61.747,65.228C61.747,67.58,59.84,69.487,57.487,69.487L4.377,69.487C2.025,69.487,0.118,67.58,0.118,65.228L0.118,4.377C0.118,2.024,2.025,0.118,4.377,0.118ZM4.377,0.118"/>
</g>
  <g id="Light-M" transform="matrix(1.0,0.0,0.0,1.0,1119.676429517998,1056.026449049248)">  <path stroke-opacity="1" clip-path="url(#clip0)" stroke-width="1px" xml:space="preserve" fill-rule="evenodd" stroke="none" fill-opacity="1" stroke-miterlimit="4" fill="#000000" stroke-linecap="butt" stroke-dasharray="none" xmlns:xlink="http://www.w3.org/1999/xlink" stroke-linejoin="miter" d="M30.932,22.433C40.597,22.433,48.661,29.312,50.526,38.457L50.576,38.784L47.685,38.784C44.959,38.784,42.748,40.449,42.748,42.502C42.748,44.555,44.959,46.219,47.685,46.219L50.576,46.219L50.526,46.546C48.661,55.691,40.597,62.571,30.932,62.571C19.886,62.571,10.932,53.585,10.932,42.502C10.932,31.418,19.886,22.433,30.932,22.433ZM30.932,20.347C18.734,20.347,8.846,30.266,8.846,42.502C8.846,54.737,18.734,64.657,30.932,64.657C43.13,64.657,53.019,54.737,53.019,42.502C53.019,30.266,43.13,20.347,30.932,20.347ZM51.362,18.262C50.282,18.262,49.407,19.111,49.407,20.159C49.407,21.207,50.282,22.056,51.362,22.056C52.442,22.056,53.317,21.207,53.317,20.159C53.317,19.111,52.442,18.262,51.362,18.262ZM57.017,18.222C55.937,18.222,55.062,19.072,55.062,20.119C55.062,21.167,55.937,22.016,57.017,22.016C58.096,22.016,58.972,21.167,58.972,20.119C58.972,19.072,58.096,18.222,57.017,18.222ZM4.374,4.706L57.49,4.706L57.49,14.721L4.374,14.721ZM2.705,3.037L2.705,16.391L59.159,16.391L59.159,3.037ZM4.377,0.118L57.487,0.118C59.84,0.118,61.747,2.024,61.747,4.377L61.747,65.228C61.747,67.58,59.84,69.487,57.487,69.487L4.377,69.487C2.025,69.487,0.118,67.58,0.118,65.228L0.118,4.377C0.118,2.024,2.025,0.118,4.377,0.118ZM4.377,0.118"/>
</g>
  <g id="Thin-M" transform="matrix(1.0,0.0,0.0,1.0,822.9664295179981,1056.026449049248)">  <path stroke="none" fill-rule="evenodd" stroke-opacity="1" xmlns:xlink="http://www.w3.org/1999/xlink" fill="#000000" clip-path="url(#clip0)" stroke-dasharray="none" fill-opacity="1" xml:space="preserve" stroke-width="1px" stroke-miterlimit="4" stroke-linejoin="miter" stroke-linecap="butt" d="M30.932,22.433C40.597,22.433,48.661,29.312,50.526,38.457L50.576,38.784L47.685,38.784C44.959,38.784,42.748,40.449,42.748,42.502C42.748,44.555,44.959,46.219,47.685,46.219L50.576,46.219L50.526,46.546C48.661,55.691,40.597,62.571,30.932,62.571C19.886,62.571,10.932,53.585,10.932,42.502C10.932,31.418,19.886,22.433,30.932,22.433ZM30.932,20.347C18.734,20.347,8.846,30.266,8.846,42.502C8.846,54.737,18.734,64.657,30.932,64.657C43.13,64.657,53.019,54.737,53.019,42.502C53.019,30.266,43.13,20.347,30.932,20.347ZM51.362,18.262C50.282,18.262,49.407,19.111,49.407,20.159C49.407,21.207,50.282,22.056,51.362,22.056C52.442,22.056,53.317,21.207,53.317,20.159C53.317,19.111,52.442,18.262,51.362,18.262ZM57.017,18.222C55.937,18.222,55.062,19.072,55.062,20.119C55.062,21.167,55.937,22.016,57.017,22.016C58.096,22.016,58.972,21.167,58.972,20.119C58.972,19.072,58.096,18.222,57.017,18.222ZM4.374,4.706L57.49,4.706L57.49,14.721L4.374,14.721ZM2.705,3.037L2.705,16.391L59.159,16.391L59.159,3.037ZM4.377,0.118L57.487,0.118C59.84,0.118,61.747,2.024,61.747,4.377L61.747,65.228C61.747,67.58,59.84,69.487,57.487,69.487L4.377,69.487C2.025,69.487,0.118,67.58,0.118,65.228L0.118,4.377C0.118,2.024,2.025,0.118,4.377,0.118ZM4.377,0.118"/>
</g>
  <g id="Ultralight-M" transform="matrix(1.0,0.0,0.0,1.0,526.2564295179981,1056.026449049248)">  <path stroke-linecap="butt" stroke-opacity="1" fill-rule="evenodd" stroke-dasharray="none" xmlns:xlink="http://www.w3.org/1999/xlink" stroke="none" stroke-width="1px" fill-opacity="1" fill="#000000" stroke-linejoin="miter" stroke-miterlimit="4" clip-path="url(#clip0)" xml:space="preserve" d="M30.932,22.433C40.597,22.433,48.661,29.312,50.526,38.457L50.576,38.784L47.685,38.784C44.959,38.784,42.748,40.449,42.748,42.502C42.748,44.555,44.959,46.219,47.685,46.219L50.576,46.219L50.526,46.546C48.661,55.691,40.597,62.571,30.932,62.571C19.886,62.571,10.932,53.585,10.932,42.502C10.932,31.418,19.886,22.433,30.932,22.433ZM30.932,20.347C18.734,20.347,8.846,30.266,8.846,42.502C8.846,54.737,18.734,64.657,30.932,64.657C43.13,64.657,53.019,54.737,53.019,42.502C53.019,30.266,43.13,20.347,30.932,20.347ZM51.362,18.262C50.282,18.262,49.407,19.111,49.407,20.159C49.407,21.207,50.282,22.056,51.362,22.056C52.442,22.056,53.317,21.207,53.317,20.159C53.317,19.111,52.442,18.262,51.362,18.262ZM57.017,18.222C55.937,18.222,55.062,19.072,55.062,20.119C55.062,21.167,55.937,22.016,57.017,22.016C58.096,22.016,58.972,21.167,58.972,20.119C58.972,19.072,58.096,18.222,57.017,18.222ZM4.374,4.706L57.49,4.706L57.49,14.721L4.374,14.721ZM2.705,3.037L2.705,16.391L59.159,16.391L59.159,3.037ZM4.377,0.118L57.487,0.118C59.84,0.118,61.747,2.024,61.747,4.377L61.747,65.228C61.747,67.58,59.84,69.487,57.487,69.487L4.377,69.487C2.025,69.487,0.118,67.58,0.118,65.228L0.118,4.377C0.118,2.024,2.025,0.118,4.377,0.118ZM4.377,0.118"/>
</g>
  <g id="Black-S" transform="matrix(1.0,0.0,0.0,1.0,2907.475784312592,633.5658038438424)">  <path stroke-opacity="1" xml:space="preserve" xmlns:xlink="http://www.w3.org/1999/xlink" fill="#000000" stroke-linejoin="miter" clip-path="url(#clip0)" stroke-linecap="butt" stroke-dasharray="none" stroke-miterlimit="4" stroke="none" stroke-width="1px" fill-opacity="1" fill-rule="evenodd" d="M24.22,17.565C31.788,17.565,38.102,22.951,39.562,30.112L39.601,30.368L37.338,30.368C35.203,30.368,33.471,31.671,33.471,33.279C33.471,34.887,35.203,36.19,37.338,36.19L39.601,36.19L39.562,36.446C38.102,43.606,31.788,48.993,24.22,48.993C15.571,48.993,8.56,41.957,8.56,33.279C8.56,24.6,15.571,17.565,24.22,17.565ZM24.22,15.932C14.669,15.932,6.926,23.698,6.926,33.279C6.926,42.859,14.669,50.626,24.22,50.626C33.771,50.626,41.514,42.859,41.514,33.279C41.514,23.698,33.771,15.932,24.22,15.932ZM40.216,14.299C39.371,14.299,38.686,14.964,38.686,15.785C38.686,16.605,39.371,17.27,40.216,17.27C41.062,17.27,41.747,16.605,41.747,15.785C41.747,14.964,41.062,14.299,40.216,14.299ZM44.644,14.268C43.799,14.268,43.114,14.933,43.114,15.753C43.114,16.574,43.799,17.239,44.644,17.239C45.489,17.239,46.175,16.574,46.175,15.753C46.175,14.933,45.489,14.268,44.644,14.268ZM3.425,3.685L45.015,3.685L45.015,11.527L3.425,11.527ZM2.118,2.378L2.118,12.834L46.322,12.834L46.322,2.378ZM3.427,0.092L45.013,0.092C46.855,0.092,48.348,1.585,48.348,3.427L48.348,51.074C48.348,52.915,46.855,54.408,45.013,54.408L3.427,54.408C1.585,54.408,0.092,52.915,0.092,51.074L0.092,3.427C0.092,1.585,1.585,0.092,3.427,0.092ZM3.427,0.092"/>
</g>
  <g id="Heavy-S" transform="matrix(1.0,0.0,0.0,1.0,2610.765784312592,633.5658038438424)">  <path stroke-linejoin="miter" stroke-linecap="butt" fill-rule="evenodd" stroke-opacity="1" stroke-dasharray="none" fill-opacity="1" fill="#000000" stroke="none" clip-path="url(#clip0)" stroke-width="1px" xml:space="preserve" stroke-miterlimit="4" xmlns:xlink="http://www.w3.org/1999/xlink" d="M24.22,17.565C31.788,17.565,38.102,22.951,39.562,30.112L39.601,30.368L37.338,30.368C35.203,30.368,33.471,31.671,33.471,33.279C33.471,34.887,35.203,36.19,37.338,36.19L39.601,36.19L39.562,36.446C38.102,43.606,31.788,48.993,24.22,48.993C15.571,48.993,8.56,41.957,8.56,33.279C8.56,24.6,15.571,17.565,24.22,17.565ZM24.22,15.932C14.669,15.932,6.926,23.698,6.926,33.279C6.926,42.859,14.669,50.626,24.22,50.626C33.771,50.626,41.514,42.859,41.514,33.279C41.514,23.698,33.771,15.932,24.22,15.932ZM40.216,14.299C39.371,14.299,38.686,14.964,38.686,15.785C38.686,16.605,39.371,17.27,40.216,17.27C41.062,17.27,41.747,16.605,41.747,15.785C41.747,14.964,41.062,14.299,40.216,14.299ZM44.644,14.268C43.799,14.268,43.114,14.933,43.114,15.753C43.114,16.574,43.799,17.239,44.644,17.239C45.489,17.239,46.175,16.574,46.175,15.753C46.175,14.933,45.489,14.268,44.644,14.268ZM3.425,3.685L45.015,3.685L45.015,11.527L3.425,11.527ZM2.118,2.378L2.118,12.834L46.322,12.834L46.322,2.378ZM3.427,0.092L45.013,0.092C46.855,0.092,48.348,1.585,48.348,3.427L48.348,51.074C48.348,52.915,46.855,54.408,45.013,54.408L3.427,54.408C1.585,54.408,0.092,52.915,0.092,51.074L0.092,3.427C0.092,1.585,1.585,0.092,3.427,0.092ZM3.427,0.092"/>
</g>
  <g id="Bold-S" transform="matrix(1.0,0.0,0.0,1.0,2314.055784312592,633.5658038438424)">  <path stroke-dasharray="none" fill="#000000" xmlns:xlink="http://www.w3.org/1999/xlink" fill-rule="evenodd" fill-opacity="1" stroke-linejoin="miter" stroke="none" stroke-opacity="1" xml:space="preserve" stroke-linecap="butt" stroke-width="1px" clip-path="url(#clip0)" stroke-miterlimit="4" d="M24.22,17.565C31.788,17.565,38.102,22.951,39.562,30.112L39.601,30.368L37.338,30.368C35.203,30.368,33.471,31.671,33.471,33.279C33.471,34.887,35.203,36.19,37.338,36.19L39.601,36.19L39.562,36.446C38.102,43.606,31.788,48.993,24.22,48.993C15.571,48.993,8.56,41.957,8.56,33.279C8.56,24.6,15.571,17.565,24.22,17.565ZM24.22,15.932C14.669,15.932,6.926,23.698,6.926,33.279C6.926,42.859,14.669,50.626,24.22,50.626C33.771,50.626,41.514,42.859,41.514,33.279C41.514,23.698,33.771,15.932,24.22,15.932ZM40.216,14.299C39.371,14.299,38.686,14.964,38.686,15.785C38.686,16.605,39.371,17.27,40.216,17.27C41.062,17.27,41.747,16.605,41.747,15.785C41.747,14.964,41.062,14.299,40.216,14.299ZM44.644,14.268C43.799,14.268,43.114,14.933,43.114,15.753C43.114,16.574,43.799,17.239,44.644,17.239C45.489,17.239,46.175,16.574,46.175,15.753C46.175,14.933,45.489,14.268,44.644,14.268ZM3.425,3.685L45.015,3.685L45.015,11.527L3.425,11.527ZM2.118,2.378L2.118,12.834L46.322,12.834L46.322,2.378ZM3.427,0.092L45.013,0.092C46.855,0.092,48.348,1.585,48.348,3.427L48.348,51.074C48.348,52.915,46.855,54.408,45.013,54.408L3.427,54.408C1.585,54.408,0.092,52.915,0.092,51.074L0.092,3.427C0.092,1.585,1.585,0.092,3.427,0.092ZM3.427,0.092"/>
</g>
  <g id="Semibold-S" transform="matrix(1.0,0.0,0.0,1.0,2017.3457843125925,633.5658038438424)">  <path fill="#000000" clip-path="url(#clip0)" stroke-linejoin="miter" stroke-opacity="1" stroke="none" stroke-dasharray="none" xml:space="preserve" fill-opacity="1" stroke-miterlimit="4" xmlns:xlink="http://www.w3.org/1999/xlink" stroke-linecap="butt" fill-rule="evenodd" stroke-width="1px" d="M24.22,17.565C31.788,17.565,38.102,22.951,39.562,30.112L39.601,30.368L37.338,30.368C35.203,30.368,33.471,31.671,33.471,33.279C33.471,34.887,35.203,36.19,37.338,36.19L39.601,36.19L39.562,36.446C38.102,43.606,31.788,48.993,24.22,48.993C15.571,48.993,8.56,41.957,8.56,33.279C8.56,24.6,15.571,17.565,24.22,17.565ZM24.22,15.932C14.669,15.932,6.926,23.698,6.926,33.279C6.926,42.859,14.669,50.626,24.22,50.626C33.771,50.626,41.514,42.859,41.514,33.279C41.514,23.698,33.771,15.932,24.22,15.932ZM40.216,14.299C39.371,14.299,38.686,14.964,38.686,15.785C38.686,16.605,39.371,17.27,40.216,17.27C41.062,17.27,41.747,16.605,41.747,15.785C41.747,14.964,41.062,14.299,40.216,14.299ZM44.644,14.268C43.799,14.268,43.114,14.933,43.114,15.753C43.114,16.574,43.799,17.239,44.644,17.239C45.489,17.239,46.175,16.574,46.175,15.753C46.175,14.933,45.489,14.268,44.644,14.268ZM3.425,3.685L45.015,3.685L45.015,11.527L3.425,11.527ZM2.118,2.378L2.118,12.834L46.322,12.834L46.322,2.378ZM3.427,0.092L45.013,0.092C46.855,0.092,48.348,1.585,48.348,3.427L48.348,51.074C48.348,52.915,46.855,54.408,45.013,54.408L3.427,54.408C1.585,54.408,0.092,52.915,0.092,51.074L0.092,3.427C0.092,1.585,1.585,0.092,3.427,0.092ZM3.427,0.092"/>
</g>
  <g id="Medium-S" transform="matrix(1.0,0.0,0.0,1.0,1720.6357843125925,633.5658038438424)">  <path fill-opacity="1" stroke-dasharray="none" clip-path="url(#clip0)" stroke-width="1px" fill="#000000" stroke-linejoin="miter" stroke-opacity="1" fill-rule="evenodd" stroke-miterlimit="4" xmlns:xlink="http://www.w3.org/1999/xlink" stroke="none" stroke-linecap="butt" xml:space="preserve" d="M24.22,17.565C31.788,17.565,38.102,22.951,39.562,30.112L39.601,30.368L37.338,30.368C35.203,30.368,33.471,31.671,33.471,33.279C33.471,34.887,35.203,36.19,37.338,36.19L39.601,36.19L39.562,36.446C38.102,43.606,31.788,48.993,24.22,48.993C15.571,48.993,8.56,41.957,8.56,33.279C8.56,24.6,15.571,17.565,24.22,17.565ZM24.22,15.932C14.669,15.932,6.926,23.698,6.926,33.279C6.926,42.859,14.669,50.626,24.22,50.626C33.771,50.626,41.514,42.859,41.514,33.279C41.514,23.698,33.771,15.932,24.22,15.932ZM40.216,14.299C39.371,14.299,38.686,14.964,38.686,15.785C38.686,16.605,39.371,17.27,40.216,17.27C41.062,17.27,41.747,16.605,41.747,15.785C41.747,14.964,41.062,14.299,40.216,14.299ZM44.644,14.268C43.799,14.268,43.114,14.933,43.114,15.753C43.114,16.574,43.799,17.239,44.644,17.239C45.489,17.239,46.175,16.574,46.175,15.753C46.175,14.933,45.489,14.268,44.644,14.268ZM3.425,3.685L45.015,3.685L45.015,11.527L3.425,11.527ZM2.118,2.378L2.118,12.834L46.322,12.834L46.322,2.378ZM3.427,0.092L45.013,0.092C46.855,0.092,48.348,1.585,48.348,3.427L48.348,51.074C48.348,52.915,46.855,54.408,45.013,54.408L3.427,54.408C1.585,54.408,0.092,52.915,0.092,51.074L0.092,3.427C0.092,1.585,1.585,0.092,3.427,0.092ZM3.427,0.092"/>
</g>
  <g id="Regular-S" transform="matrix(1.0,0.0,0.0,1.0,1423.9257843125924,633.5658038438424)">  <path fill="#000000" fill-opacity="1" stroke-dasharray="none" clip-path="url(#clip0)" stroke-linejoin="miter" xml:space="preserve" stroke-opacity="1" xmlns:xlink="http://www.w3.org/1999/xlink" stroke-width="1px" stroke-miterlimit="4" stroke-linecap="butt" stroke="none" fill-rule="evenodd" d="M24.22,17.565C31.788,17.565,38.102,22.951,39.562,30.112L39.601,30.368L37.338,30.368C35.203,30.368,33.471,31.671,33.471,33.279C33.471,34.887,35.203,36.19,37.338,36.19L39.601,36.19L39.562,36.446C38.102,43.606,31.788,48.993,24.22,48.993C15.571,48.993,8.56,41.957,8.56,33.279C8.56,24.6,15.571,17.565,24.22,17.565ZM24.22,15.932C14.669,15.932,6.926,23.698,6.926,33.279C6.926,42.859,14.669,50.626,24.22,50.626C33.771,50.626,41.514,42.859,41.514,33.279C41.514,23.698,33.771,15.932,24.22,15.932ZM40.216,14.299C39.371,14.299,38.686,14.964,38.686,15.785C38.686,16.605,39.371,17.27,40.216,17.27C41.062,17.27,41.747,16.605,41.747,15.785C41.747,14.964,41.062,14.299,40.216,14.299ZM44.644,14.268C43.799,14.268,43.114,14.933,43.114,15.753C43.114,16.574,43.799,17.239,44.644,17.239C45.489,17.239,46.175,16.574,46.175,15.753C46.175,14.933,45.489,14.268,44.644,14.268ZM3.425,3.685L45.015,3.685L45.015,11.527L3.425,11.527ZM2.118,2.378L2.118,12.834L46.322,12.834L46.322,2.378ZM3.427,0.092L45.013,0.092C46.855,0.092,48.348,1.585,48.348,3.427L48.348,51.074C48.348,52.915,46.855,54.408,45.013,54.408L3.427,54.408C1.585,54.408,0.092,52.915,0.092,51.074L0.092,3.427C0.092,1.585,1.585,0.092,3.427,0.092ZM3.427,0.092"/>
</g>
  <g id="Light-S" transform="matrix(1.0,0.0,0.0,1.0,1127.2157843125926,633.5658038438424)">  <path stroke-opacity="1" clip-path="url(#clip0)" stroke-width="1px" xml:space="preserve" fill-rule="evenodd" stroke="none" fill-opacity="1" stroke-miterlimit="4" fill="#000000" stroke-linecap="butt" stroke-dasharray="none" xmlns:xlink="http://www.w3.org/1999/xlink" stroke-linejoin="miter" d="M24.22,17.565C31.788,17.565,38.102,22.951,39.562,30.112L39.601,30.368L37.338,30.368C35.203,30.368,33.471,31.671,33.471,33.279C33.471,34.887,35.203,36.19,37.338,36.19L39.601,36.19L39.562,36.446C38.102,43.606,31.788,48.993,24.22,48.993C15.571,48.993,8.56,41.957,8.56,33.279C8.56,24.6,15.571,17.565,24.22,17.565ZM24.22,15.932C14.669,15.932,6.926,23.698,6.926,33.279C6.926,42.859,14.669,50.626,24.22,50.626C33.771,50.626,41.514,42.859,41.514,33.279C41.514,23.698,33.771,15.932,24.22,15.932ZM40.216,14.299C39.371,14.299,38.686,14.964,38.686,15.785C38.686,16.605,39.371,17.27,40.216,17.27C41.062,17.27,41.747,16.605,41.747,15.785C41.747,14.964,41.062,14.299,40.216,14.299ZM44.644,14.268C43.799,14.268,43.114,14.933,43.114,15.753C43.114,16.574,43.799,17.239,44.644,17.239C45.489,17.239,46.175,16.574,46.175,15.753C46.175,14.933,45.489,14.268,44.644,14.268ZM3.425,3.685L45.015,3.685L45.015,11.527L3.425,11.527ZM2.118,2.378L2.118,12.834L46.322,12.834L46.322,2.378ZM3.427,0.092L45.013,0.092C46.855,0.092,48.348,1.585,48.348,3.427L48.348,51.074C48.348,52.915,46.855,54.408,45.013,54.408L3.427,54.408C1.585,54.408,0.092,52.915,0.092,51.074L0.092,3.427C0.092,1.585,1.585,0.092,3.427,0.092ZM3.427,0.092"/>
</g>
  <g id="Thin-S" transform="matrix(1.0,0.0,0.0,1.0,830.5057843125925,633.5658038438424)">  <path stroke="none" fill-rule="evenodd" stroke-opacity="1" xmlns:xlink="http://www.w3.org/1999/xlink" fill="#000000" clip-path="url(#clip0)" stroke-dasharray="none" fill-opacity="1" xml:space="preserve" stroke-width="1px" stroke-miterlimit="4" stroke-linejoin="miter" stroke-linecap="butt" d="M24.22,17.565C31.788,17.565,38.102,22.951,39.562,30.112L39.601,30.368L37.338,30.368C35.203,30.368,33.471,31.671,33.471,33.279C33.471,34.887,35.203,36.19,37.338,36.19L39.601,36.19L39.562,36.446C38.102,43.606,31.788,48.993,24.22,48.993C15.571,48.993,8.56,41.957,8.56,33.279C8.56,24.6,15.571,17.565,24.22,17.565ZM24.22,15.932C14.669,15.932,6.926,23.698,6.926,33.279C6.926,42.859,14.669,50.626,24.22,50.626C33.771,50.626,41.514,42.859,41.514,33.279C41.514,23.698,33.771,15.932,24.22,15.932ZM40.216,14.299C39.371,14.299,38.686,14.964,38.686,15.785C38.686,16.605,39.371,17.27,40.216,17.27C41.062,17.27,41.747,16.605,41.747,15.785C41.747,14.964,41.062,14.299,40.216,14.299ZM44.644,14.268C43.799,14.268,43.114,14.933,43.114,15.753C43.114,16.574,43.799,17.239,44.644,17.239C45.489,17.239,46.175,16.574,46.175,15.753C46.175,14.933,45.489,14.268,44.644,14.268ZM3.425,3.685L45.015,3.685L45.015,11.527L3.425,11.527ZM2.118,2.378L2.118,12.834L46.322,12.834L46.322,2.378ZM3.427,0.092L45.013,0.092C46.855,0.092,48.348,1.585,48.348,3.427L48.348,51.074C48.348,52.915,46.855,54.408,45.013,54.408L3.427,54.408C1.585,54.408,0.092,52.915,0.092,51.074L0.092,3.427C0.092,1.585,1.585,0.092,3.427,0.092ZM3.427,0.092"/>
</g>
  <g id="Ultralight-S" transform="matrix(1.0,0.0,0.0,1.0,533.7957843125924,633.5658038438424)">  <path stroke-linecap="butt" stroke-opacity="1" fill-rule="evenodd" stroke-dasharray="none" xmlns:xlink="http://www.w3.org/1999/xlink" stroke="none" stroke-width="1px" fill-opacity="1" fill="#000000" stroke-linejoin="miter" stroke-miterlimit="4" clip-path="url(#clip0)" xml:space="preserve" d="M24.22,17.565C31.788,17.565,38.102,22.951,39.562,30.112L39.601,30.368L37.338,30.368C35.203,30.368,33.471,31.671,33.471,33.279C33.471,34.887,35.203,36.19,37.338,36.19L39.601,36.19L39.562,36.446C38.102,43.606,31.788,48.993,24.22,48.993C15.571,48.993,8.56,41.957,8.56,33.279C8.56,24.6,15.571,17.565,24.22,17.565ZM24.22,15.932C14.669,15.932,6.926,23.698,6.926,33.279C6.926,42.859,14.669,50.626,24.22,50.626C33.771,50.626,41.514,42.859,41.514,33.279C41.514,23.698,33.771,15.932,24.22,15.932ZM40.216,14.299C39.371,14.299,38.686,14.964,38.686,15.785C38.686,16.605,39.371,17.27,40.216,17.27C41.062,17.27,41.747,16.605,41.747,15.785C41.747,14.964,41.062,14.299,40.216,14.299ZM44.644,14.268C43.799,14.268,43.114,14.933,43.114,15.753C43.114,16.574,43.799,17.239,44.644,17.239C45.489,17.239,46.175,16.574,46.175,15.753C46.175,14.933,45.489,14.268,44.644,14.268ZM3.425,3.685L45.015,3.685L45.015,11.527L3.425,11.527ZM2.118,2.378L2.118,12.834L46.322,12.834L46.322,2.378ZM3.427,0.092L45.013,0.092C46.855,0.092,48.348,1.585,48.348,3.427L48.348,51.074C48.348,52.915,46.855,54.408,45.013,54.408L3.427,54.408C1.585,54.408,0.092,52.915,0.092,51.074L0.092,3.427C0.092,1.585,1.585,0.092,3.427,0.092ZM3.427,0.092"/>
</g>
 </g>
</svg>
